/* XPM */
static char *_0f9ec66d9924b1ebe4f5fe05aa9d841[] = {
/* columns rows colors chars-per-pixel */
"64 64 25 1 ",
"  c black",
". c #E32622",
"X c #E42723",
"o c #EC2723",
"O c #ED2723",
"+ c #EF2723",
"@ c #EC2724",
"# c #ED2724",
"$ c #EF2724",
"% c #ED2823",
"& c #EE2824",
"* c #EF2824",
"= c #EE2C28",
"- c #EE2D29",
"; c #F2312B",
": c #F2312C",
"> c #3F5FAC",
", c #3F5FAD",
"< c #3F60AC",
"1 c #3E60AD",
"2 c #3F60AD",
"3 c #FEF6F6",
"4 c #FEFEFE",
"5 c #FFFEFE",
"6 c #FEFFFF",
/* pixels */
"                       &&&#&&&&&&#&&#&&&&                       ",
"                       &&&%&&&&&&&&&%&&&&                       ",
"                       #&#%&#&#O&&&&%&#&&                       ",
"                       O&%%&O&%%&O&&%&O&&                       ",
"                       %&&*%%*&&%%&%&%%&%                       ",
"              &&##O&&##&&&#&&&&&&&&&#&&&&#O&&&#&O&              ",
"              &%&#&&%&#&&&%&&&&&&&&&%&&&&%&&&&%&%*              ",
"              #&##&#&###O#O&#O#&&#OOO&#OOO%$OOO&+O              ",
"              &&&&&&&&&&&*&&&&&&&&&&&&&&&&&&&&&&&&              ",
"         &&O&&#&O&&&&O&&&O&&&&O&&&&&&&&&&&&&&&&&&&&&&&&         ",
"         &%*&%&%&&%o%&&&%O%O&%O&O&%&%+*%*%O*%%%O&%%%O&%         ",
"         &&##O#&##%&&##&*O&&&&O&&&&&&&&&%&&&&&&&&&&&&&&         ",
"         *%&&&&%&&&&&&&&O#O*#O#&&#O*O&#+*O%#+&&&OO&O&OO         ",
"         **&&&&*&&&&&&&&*&&&&&&&&*&*&&&&&&&&&&&&&&&&&&&         ",
"     #&&&#*O&*#&#&3555555555&&#&&&&%&&&*&%*&&-555555555*O&&     ",
"     &%&&&%&&%*%&&3555555555&%O&O*%*%+&%%*O*%-555555555%&OO     ",
"     #&#&O&O#&O&O#3555555555&&&&&&&&&&&&&&&&@-555555565@%&&     ",
"     #&###&##&#&##3555555555&&&&&&&O&&&&%&&&@-555555555@%&&     ",
"     %&&%&%&&O555555555555555555&&&%&&&&%555555555556655555     ",
"     #&&&#&O&&555555555555555555&&&&&&&&&555555555556555555     ",
"     &%&&&%&&%555556555555555555O&%&%o&%%555655655555555555     ",
"     #&#&O&O&@556666566555555555&&&&&&&&&555555555555555555     ",
"     #&###&#@#556655556555555555&&&O&&&&@555565555555555555     ",
"     &&&&&O&&O5555656551111,1122O&O&&o&%&555655655111111111     ",
"     &&&&*%*&O55556555511,111>>2&&O&&*&O&555555555<<>1><11,     ",
"     &#*&O&&&O5555665551111,111<###*&###&555555655<11<11111     ",
"     &&&&&&&&&5555555551,1112,2<O&OO*O&O&555565655<1>1><111     ",
"&&&&&*%&O*OO&&5565555551>,,12>,1#&O&O#&O@5556565551>>>>1<<>&&&&&",
"&&&&&&&&&&O*&&5555556551>11<<>22O&O&&O&O%5556556551,>1>11<1:#&#&",
"&&&&&&&&&&O&&O5555656551>>1>1>>2O&O&&O&Oo5556556551,>1>11,,;&&O#",
"&#&O&&#&&O*&&O5555665551111><<<2###**###o566655655111<11>11;####",
"&&&&&&&&&&&&&&5555556551>11<1><<O*OO&O&Oo565665555<1>1><1<1:O&##",
"*%%&%&%&O&+O&&*O@&5555555555&O#O#*O&O#&O&OO&O-555555556@&&%&#&&O",
"&%*O%&%&&&&%&&&*&@3555555555%&%&&%&O&&%&O&&%&&555555555@%@@&&O@&",
"&&%**&&&&&%*&O&%&&5555555555&OO&&&O&&&&O&&&&&-555555555&&&%#O&&O",
"&&&OO&&O&&*OO%*%%@5555555555O&O%&O&&O&O&&O&O&-556555555&&&ooO&&O",
"&&&&&&&&&&&&&&&*&&5555555555&O&&O&OO*O*OO&O&O-555555555&&#&&O&##",
"&%%&%&%*O&OO&&&O%&&&OO&&@@@&&O#O#&O&O#&O&OO&O&&#oo&o&&O&&&o&#&&O",
"&%*O%&%&&&*&&&&&&&&&&&&%&%&&%&%&*%&O&&%&O&&%OO&&@&o&&%&OO#&@&o#&",
"&&&&&&&&&*O&&O&+&&&&O&&&oo&%&OO*O&O&&O&O&&O&O&&O%o&&O&O&&OOO&&Oo",
"&&&OO&&O&&%OO%&%%o%&%OOO&O+&O&O%&O&&O*O&&O&O*&O&O&&OOO&&&&OOO&&O",
"&&&&&&&&&&*&&*&*&&&&&&&&O&&O&O&&O&OO*O&OO*O&OO*OOOO&O&OO&@@&O&##",
"O%%&%O%*O&OO&&&OO&&&OO&&O#+O&O#OO&O+OO&OOOO&OO+OOOOOO&OO&&%&#&&%",
"&%*O%&%&&&*&&&&&&&&&&&&%&%&&%&%&*%&O&&%&O&&%&O&&&&O&&%&OO#&&&O#&",
"&*&&&&&&&&O&&O&O&&O&O&&&OO&O&OO&O&O&&O&O*&O&O&*OOO&&O&O&&OOO&&oO",
"&#&OO&#O*O*OO*O&OO%&&OOO&OO*O&O%&O&*O&O&*O&O&&O*#&&O&O&&@#OOO##O",
"&&*&&&*&&&&&&&&&&&&&&&&&O&&O&O&&O&OO*O*OO&O&OO*OOOO*O&OO&##&O&##",
"*%%*%*%&O*OO&&&OO&&&OO&&O#O#&O#O#*O&O#&O*OO*O&O#OO&OO&O&&&O&#&&O",
"&%&O%&%&&&&&&&&&&&&&&&&%&%&&%&%&&%&O&&%&O&&%&O&&&&O&&%&OO#&&&O#&",
"&&&&&&&&&&O&&O*O&&O&O&&&OO&O&OO&O&O&&O&O&&O&O&&OOO&&O&O&&OOO&&OO",
"&&&OO&&O&&%OO%&%OO%&*OOO&OO&O&O%&O&&O&O&&O&O&&O&O&&OOO&&&&OOO&&O",
"$%&%&#%&&&O&*&*O&&*&O%*&&&&O&&&&O&&O&O&&O&O&&O&O&&O&&&&+O#%%&O#%",
"O&&&&O&&&&O&&O*O&&O&O&&&O&&O&O&&O&OO&O&OO&O&OO&OOOO&O&OO&&&@#&&&",
"&%&O%&%&&&*&&&&*&&*&&&&%&%&&%&%&&%&O&&%&O&&%&O&&&&O&&%&OO@&&&O#&",
"&&&&&&&&&&O**O&O*&O&O&&&OO&O&OO&O&O&&O&O&&O&O&&OOO&&O&O&&oOO&&OO",
"&&&OO&&O&     %*OO%&%OOO&OO*         &O&&O&O&&O&O&     &&&OOO&&O",
"O&&&&O&OO     O&OO&O&OO%&O#&         &%&&#&%&&#&&&     &O&##%O&#",
"O%&&&O%&&     &O&&O&O&&#&#&&         &#&&&&#&&&&&&     &O##&&O##",
"&&&&&&&OO     O&OO&O&OOO&&O&         &O&&O&O&&O&&&     &&OOO#&OO",
"&&&&&             .&&&&###O&         &##OO&##O             &&O&&",
"#&&%%             X&O&&&O&&&         #&O#&#&O#             *%%&&",
"O&&&&             X&&OOO&&O&         &O&&O&O&&             O%&OO",
"%O&&&             .&O&&#&#&&         &#&&&&#&&             &&O##",
"&&#&&             .O&OOO&&O&         &O&&O&O&&             ##&OO"
};
