/* XPM */
static char *_abd1f574bba47658721cf655273fced[] = {
/* columns rows colors chars-per-pixel */
"64 64 249 2 ",
"   c #000000",
".  c #0A0A0A",
"X  c #0A1217",
"o  c #151616",
"O  c #1C1D1C",
"+  c #241419",
"@  c #301013",
"#  c #102B15",
"$  c #1A241B",
"%  c #25251C",
"&  c #292A18",
"*  c #1D1A25",
"=  c #271B27",
"-  c #371525",
";  c #1E2A29",
":  c #19372A",
">  c #0A2C34",
",  c #1C2A33",
"<  c #1B3734",
"1  c #252523",
"2  c #262929",
"3  c #2C2C2B",
"4  c #25332B",
"5  c #2B332C",
"6  c #283929",
"7  c #33302E",
"8  c #282B35",
"9  c #283636",
"0  c #363534",
"q  c #632A16",
"w  c #491B2A",
"e  c #552A2C",
"r  c #463B38",
"t  c #712B2F",
"y  c #1F4634",
"u  c #2A462B",
"i  c #2A4738",
"p  c #374837",
"a  c #2B5635",
"s  c #365736",
"d  c #386439",
"f  c #37703C",
"g  c #45463B",
"h  c #47583C",
"j  c #704D39",
"k  c #4A753D",
"l  c #303741",
"z  c #413A4B",
"x  c #1B5048",
"c  c #2A4D45",
"v  c #354947",
"b  c #375945",
"n  c #2D6D4E",
"m  c #376848",
"M  c #3B744D",
"N  c #3C794A",
"B  c #396A54",
"V  c #3D7553",
"C  c #3B7857",
"Z  c #4A4947",
"A  c #504D4E",
"S  c #475744",
"D  c #595947",
"F  c #595856",
"G  c #456648",
"H  c #5E614F",
"J  c #457547",
"K  c #437C4D",
"L  c #4B7C4C",
"P  c #537D48",
"I  c #436B53",
"U  c #586A56",
"Y  c #447C55",
"T  c #487856",
"R  c #567857",
"E  c #67634A",
"W  c #696A55",
"Q  c #767755",
"!  c #526763",
"~  c #686966",
"^  c #726D67",
"/  c #7B7966",
"(  c #797573",
")  c #8D2A37",
"_  c #B6282B",
"`  c #AE2D32",
"'  c #D52B15",
"]  c #C9292B",
"[  c #D32027",
"{  c #D52A27",
"}  c #D2312E",
"|  c #E62B2A",
" . c #94532F",
".. c #AF5136",
"X. c #B46F39",
"o. c #C55616",
"O. c #D57819",
"+. c #D75B2A",
"@. c #CF6C2D",
"#. c #C97529",
"$. c #D2732D",
"%. c #DA7A2B",
"&. c #D86C39",
"*. c #CC7636",
"=. c #D47433",
"-. c #D47B33",
";. c #DB7C32",
":. c #DA7837",
">. c #D2753A",
",. c #D47A3A",
"<. c #E86E37",
"1. c #E47836",
"2. c #993041",
"3. c #E03F43",
"4. c #8D5459",
"5. c #8F744B",
"6. c #B47850",
"7. c #8D776E",
"8. c #AC726E",
"9. c #D26C48",
"0. c #C47845",
"q. c #D57643",
"w. c #E37646",
"e. c #48873C",
"r. c #52853D",
"t. c #6CA53A",
"y. c #3F8849",
"u. c #478549",
"i. c #4C844D",
"p. c #578A49",
"a. c #558A4C",
"s. c #4E9546",
"d. c #5A9546",
"f. c #5D944C",
"g. c #4B8352",
"h. c #4A8656",
"j. c #558B53",
"k. c #5A8D53",
"l. c #578758",
"z. c #479558",
"x. c #5D9452",
"c. c #599756",
"v. c #649B44",
"b. c #679847",
"n. c #62954C",
"m. c #649B4B",
"M. c #6B9C4C",
"N. c #76994D",
"B. c #739E4C",
"V. c #638C57",
"C. c #738854",
"Z. c #639453",
"A. c #659B54",
"S. c #6B9C53",
"D. c #689759",
"F. c #729D54",
"G. c #759A5A",
"H. c #53A653",
"J. c #6BA346",
"K. c #67A44C",
"L. c #6CA24C",
"P. c #74A445",
"I. c #78A945",
"U. c #75A34B",
"Y. c #79A54C",
"T. c #74AA4B",
"R. c #7CA94D",
"E. c #77B14B",
"W. c #67A656",
"Q. c #6DA253",
"!. c #74A253",
"~. c #7AA553",
"^. c #75AA53",
"/. c #7CA952",
"(. c #75A35B",
"). c #7BA85A",
"_. c #558863",
"`. c #589863",
"'. c #798967",
"]. c #708D6F",
"[. c #759868",
"{. c #4BA865",
"}. c #76A663",
"|. c #AE833C",
" X c #D0872E",
".X c #D78537",
"XX c #EA932B",
"oX c #E38C35",
"OX c #ECAE34",
"+X c #EBC439",
"@X c #899355",
"#X c #BF8557",
"$X c #86A64E",
"%X c #83A757",
"&X c #8D9271",
"*X c #A38C6E",
"=X c #8EA86D",
"-X c #A4A77D",
";X c #BBAC74",
":X c #D1974C",
">X c #F4B54D",
",X c #B5D77F",
"<X c #FAD34F",
"1X c #887C8A",
"2X c #8A8983",
"3X c #92968C",
"4X c #A2999A",
"5X c #97B086",
"6X c #9AA796",
"7X c #A7AE85",
"8X c #B2B688",
"9X c #A5A497",
"0X c #B8BC93",
"qX c #AFABAA",
"wX c #B8B7B4",
"eX c #D5B991",
"rX c #B5C38E",
"tX c #BCC197",
"yX c #BCC3A4",
"uX c #B7D3A9",
"iX c #C1C79A",
"pX c #D1E39D",
"aX c #CACDAA",
"sX c #CBD3A8",
"dX c #D4D8AC",
"fX c #CAC6BB",
"gX c #CADBB6",
"hX c #D7DBB6",
"jX c #D4E5AC",
"kX c #DCE4B7",
"lX c #E3EBBB",
"zX c #E7F6BB",
"xX c #BCB8C3",
"cX c #D4D2CF",
"vX c #E6EDC2",
"bX c #E6EBC9",
"nX c #EAF4C7",
"mX c #F0F5D1",
"MX c #F4FBD4",
"NX c #F5FAD7",
"BX c #FAFBDB",
"VX c #D3D4E2",
"CX c #EFF4ED",
"ZX c #FCFDE4",
"AX c #F5F7E8",
"SX c #FDFDEC",
"DX c #F7F9F5",
"FX c #FDFEF4",
"GX c #FEFEFB",
/* pixels */
"                                                                '.V.]..                                                         ",
"                                                            . D.F.D.c.G                                                         ",
"                                                            D.c.S.n.T n   '.C._.                                                ",
"                                                          ~ D.[.N.x.R n [.S.D.x.T                                               ",
"                                                      . % . DXyX`.j.C f.A.A.x.l.C B                                             ",
"                                                  N.G.B.J.cXGXCXVX_.I ].Q.}.Z.L V i a.].                                        ",
"                                              U G.}.(.G.=X1X= DXcX1X6XAXCX_.j.M n c `.e.U                                       ",
"                                            [.W.(.).!.~.=XX 1 bXqX( VXDXDXDX2XC n 9 [.n.f.R                                     ",
"                                          C.~.U.(.!.~.!.!.).G.=X6X/ wX* CXVX4X! a p D.m.n.c.U                                   ",
"                                        G.r.9 }.Y.~.Y.P.B.P.T.Y.L.n.6 O CXqX2XF v [.M.A.F.r.e.o                                 ",
"                                      %Xt.%XP %XN.~.P.U.$XY.t.Y.).J.D.G.cX6X( p V.v.d.p.i.i.u.L                                 ",
"                                    }.Y.I.P.~.Y.~.!.!.R.!.p V.P.T.I.T.K.D.&X! S p.V.f.f.k.j.i.u.b                               ",
"                                  @X(.^.T.Y./.Y.Y.U.Y.s U : 9 %XI.Y.U.!.J.f.g.k.Z.Z.f.f.p.p.i.Y C F                             ",
"                                Z ^.^.E.T.Y.R.R.R.Y.R.Y.^.M.T.T.^.Y.~.!.J.v.s.n.v.v.n.f.x.a.u.K Y m                             ",
"                                G.K.~.I.E.Y.Y.Y./.Y.Y.Y.$XU.I.).~.Y.Y.U.P.m.j.Z.A.Z.f.x.p.j.g.Y C M u                           ",
"                              o ^.$XR.R.Y.R.R.%XY.Y.Y.Y.I.Y.Y.Y.Y.Y.U.B.L.m.x.n.f.p.f.x.a.j.L Y B n :                           ",
"                              '.^.R././.U.R.Y./.R.R./.R.Y./.Y.Y.Y.Y.U.U.M.v.a.f.x.f.k.k.a.T V T G d # 5                         ",
"                              D.Y./.R./.Y.).~.~.~.~.Y.U./.R.Y.P.Y.!.U.L.S.d.i.Z.j.a.i.i.i.L V I f a ; 5                         ",
"                              G.~./.Y.Y.Y.%X~./.~.~.Y.Y.Y.Y.Y.Y.B.Y.B.m.D.f.h.P a.a.i.K J &X3X].c # * 3                         ",
"                              F.!.R.R./.R.R.R.~.~./.Y.R.T.T.Y.Y.Y.J.J.v.x.e.Y T a.i.g.6XfXqX4X1X( % O 2                         ",
"                              D.Q.~.U./.Y.R.R./.~.~.Y.R.^.!.U.U.B.L.Q.v.c.u.M I l.k.0XxXwX4X3X( H 0 = *                         ",
"                              Z.S.Q.T.T.P./.T./.^.~.T.P.W.L.S.M.b.m.f.p.h.N B B i.yXfXxXqX2X( ~ A 3 o X                         ",
"                              R f.K.S.K.J.).Y.~.^.!.T.Q.Q.Q.D.A.m.f.j.i.h.n p G ].cXwXwX4X&X~ F 0 3 X O                         ",
"                                j.D.D.K.B.!.P.!.L.~.Q.Q.M.A.f.k.l.l._.Y C b 9 G fXxXwX9X1X^ F z 7 1 X F                         ",
"                                j.l.k.f.A.A.m.F.S.F.S.A.d.p.j.p.j.h.h.N B < , '.qXwX9X2X( W A 8 1 2 . $                         ",
"                                  _.y.l.h.k.f.c.c.c.x.k.j.g.h.i.h.h.J N c ; ; 4XqX3X&X~ F Z 0 8 3 X + r                         ",
"                                  T M C Y K i.L i.i.i.K y.N C g.K M m i , , : 3X3X7.~ F r 8 0 - 2 X + @                         ",
"                                F n.L V B T K C I I V V C B n B B c < 8 8 ; 4 ~ W D A 0 8 8 8 8 s R & % .                       ",
"                                G.M.B.k c B n n m M n m s c i i c 9 2 4 , 5 Z z Z 0 3 8 2 l 4 I i.i.T 3 A                       ",
"                              =X!.J.M.Q.%Xp i v c v v i l 9 9 , 8 , 9 4 S yX7X^ 7 8 9 3 : W _.u.a.N M L M =X5                   ",
"                              t.K.L.m.^.MXzXnX! 3 9 l 9 l ; 9 8 4 ; p '.'.W h A S D.V.V.k.V.p.W.n.P K T T {.{.K.].              ",
"                            ,X(.[.W.S.pXMXmXZXAXSXFXcX2XF ~ 6XwX&XH D F H D &XZ.c.f.D.c.Z.G.S.U.M.i.Y K V P j.z.z.`.            ",
"                            Q.d.B.B.@XpXnXMXZXFXFXSXDXDXGXGXDXDXDXGXCXAXFXZXgXm.f.A.x.A.c.Q.^.T.S.l.Y K Y J u.l.z.`.M           ",
"                8.} ' ' } 8.s.b.B.I.$XzXAXBXZXFXFXGXGXGXGXGXGXGXDXGXFXFXFXDXAXc.A.D.c.Z.(.Y.T.P.M.P m T T g.J K u.`.I           ",
"              ..' } | | ' _ E c.K.L.$XzXmXBXZXFXFXGXGXGXGXGXGXGXGXGXDXFXFXDXDX[.m.Z.c.Q.U.~.T.J.Z.g.b Y T u.J m h.a.S           ",
"          . Q >X<Xo.} { _ ]  .H.W.U.=XlXMXBXSXFXFXGXGXGXGXGXFXGXGXGXFXSXFXZXAXgXQ.D.M.U.Y.T.!.v.x.C b Y h.g.K G n d i           ",
"          g %. X<X<X+.3.] _ _ v.W./.%XlXMXBXSXSXFXFXGXGXGXFXGXFXFXFXFXFXDXZXAXZXS.D.Q.T.Y.Y.M.v.l.n b N M J f s s S 6           ",
"          .X&.1.oXOX+X+.} ` ..M.W.^.$XkXnXMXSXSXSXFXGXFXFXGXFXFXFXFXFXSXFXZXAXZXG.M.(.U.!.b.b.d.h.b I V V J d h s s 6           ",
"          0.w.1.%.1.XXOXo.' @XS.A.S.N.dXmXmXSXSXZXFXFXFXFXGXFXFXFXFXDXSXSXAXBXAX5X(.U.I.B.b.m.d.Y 9 I M I G s p u p 9           ",
"          tX,.1.%.%.%..XXXQ v.G.A.S.n.sXnXnXSXZXBXSXFXSXSXGXSXFXFXZXSXZXZXBXMXMXjXB.B.).U.b.f.i.I < m m b h u p u p S           ",
"            .X1.-.;.;.;..Xv.K.M.c.Z.a.iXkXnXMXMXBXZXSXSXSXSXFXSXSXZXAXmXNXmXgXF.M.b.L.L.M.m.u.T i c m a b u 6 : 4 4 p           ",
"            6..X:..X;.-.|.k.`.D.A.l.L sXhXkXzXMXMXBXBXZXZXBXBXBXBXNXNXmXnX%XT.b.^.Q.J.m.n.k.g.m m b 9 i i 6 & ; & 6 4           ",
"              ;. X1.1.-.X.y.i D.m.j.G tXdXhXlXvXnXMXBXmXBXBXBXBXmXnXbXgXN.L.!.B.K.M.K.b.n.a.N I # c p < l & u # $ 2 $           ",
"              2 :.1. X;.q.b N z.h.Y ; tXaXkXlXvXnXvXvXvXnXvXzXnXlXvXuX!.I.U.B.Q.K.b.n.a.s.J c $ b i u p }.H.H.i.d & 4           ",
"                8.oX%.-.O. .Z U y.< - 8XeXsXdXvXvXvXlXlXkXhXgXkXhXuX(.T.T.K.M.b.H.Z.j.l.L x > S Z v x.B.f.H.y.I m & O           ",
"                  #X>.,.;.0.t p * w 2.*X7XiXsXkXvXhXkXlXkXhXhXdXsX%X!.Q.W.m.k.k.V.z.P D @ e Z Z r N.U.M.A.f.y.k d 4 O           ",
"                  H q.,.q.#.:X_ 2.] ) t *XrXiXsXkXlXdXhXdXhXdXdXsXv.(.t.v.d.k.T V j +.} | } { t '.G.G.d.l.L N J a 9             ",
"                    :.q.-.1.O.oX_ ` ` t 4.-X8XaXsXdXaXaXaXaXuXyX5XU.P.v.S.n.L a ) } { { ' } } } { @Xx.a.R J N h a ~             ",
"                    *.,..X%.q. X$.` t w e 7.-X-XrXiXtX0X0X0X0X0Xb.J.[.J.A.d.a.0 } XX>X<XXX} [ { ] _ W Y K K J p 4 Z             ",
"                    = >.%.-. X@.X.` t + .   Q &X-X-X8X8X8X7X-X-Xd.v.u m.d.r.m j XX.X>X<X<X+X@.] [ ` ) R K K s 2 4               ",
"                      :X X-.&.,.t t - ~       ^ Q Q *X7X-X-X-X&Xp.s.G l.u.e.h  X:. X=.;..XOXOXo._ [ ) j Y s $ % 4               ",
"                        X.*.1.*.t - o           W Q Q / / 7.&X@XY u.K : J N 5.$.$.#.=.$.#.#.oXw.` ` ) t u % 1 1 0               ",
"                          ;X.X<.0                 0 D D D E E E h m b < # p 5.$.=.@.=.=.:.@.9.9...2.t w - O 1 O                 ",
"                              . .                   F g p 0 Z g g r 8 5 0 0 5.@.$.%.=.$.$.*.>.&...t w - o o 2 O                 ",
"                                                        7 2 7 1 3 2 8 2 3 < & 0.=.&.-.=.=.#.#.-. .e * = o 2 =                   ",
"                                                              F 2 2 7 7 5 > 9 X.=.:.>.=.-.*.*.@.&.w O = O 3                     ",
"                                                                              <.=.=.:.:.>.,.*.=.*.q = +                         ",
"                                                                            6.q.>.=.=.>.=.,.*.>.6.@ - O                         ",
"                                                                            :X6.>.-.=.$.@.*.*.+.q w 1                           ",
"                                                                              #.:.:.>.=.*.9.X.q @ 0                             ",
"                                                                              7.%.<.>.>.*.*.0.e @                               ",
"                                                                                9.%.$.$.@.@.:.e Z                               ",
"                                                                                  8.*.<.$.*.q.A                                 ",
"                                                                                      eXX.^                                     "
};
